<?xml version="1.0" encoding="UTF-8" standalone="no"?>
<svg
   xmlns:dc="http://purl.org/dc/elements/1.1/"
   xmlns:cc="http://creativecommons.org/ns#"
   xmlns:rdf="http://www.w3.org/1999/02/22-rdf-syntax-ns#"
   xmlns:svg="http://www.w3.org/2000/svg"
   xmlns="http://www.w3.org/2000/svg"
   xmlns:sodipodi="http://sodipodi.sourceforge.net/DTD/sodipodi-0.dtd"
   xmlns:inkscape="http://www.inkscape.org/namespaces/inkscape"
   height="512pt"
   viewBox="0 -62 512.00122 512"
   width="512pt"
   version="1.1"
   id="svg36"
   sodipodi:docname="helicopter.svg"
   inkscape:version="0.92.2 5c3e80d, 2017-08-06">
  <metadata
     id="metadata42">
    <rdf:RDF>
      <cc:Work
         rdf:about="">
        <dc:format>image/svg+xml</dc:format>
        <dc:type
           rdf:resource="http://purl.org/dc/dcmitype/StillImage" />
        <dc:title></dc:title>
      </cc:Work>
    </rdf:RDF>
  </metadata>
  <defs
     id="defs40" />
  <sodipodi:namedview
     pagecolor="#ffffff"
     bordercolor="#666666"
     borderopacity="1"
     objecttolerance="10"
     gridtolerance="10"
     guidetolerance="10"
     inkscape:pageopacity="0"
     inkscape:pageshadow="2"
     inkscape:window-width="640"
     inkscape:window-height="480"
     id="namedview38"
     showgrid="false"
     inkscape:zoom="0.38756561"
     inkscape:cx="341.33333"
     inkscape:cy="341.33333"
     inkscape:window-x="0"
     inkscape:window-y="0"
     inkscape:window-maximized="0"
     inkscape:current-layer="svg36" />
  <path
     d="m318.675781 361.957031c-4.351562 0-7.878906-3.527343-7.878906-7.878906v-48.332031c0-4.351563 3.527344-7.878906 7.878906-7.878906 4.351563 0 7.882813 3.527343 7.882813 7.878906v48.332031c0 4.351563-3.53125 7.878906-7.882813 7.878906zm0 0"
     fill="#57565c"
     id="path2" />
  <path
     d="m432.148438 361.957031c-4.351563 0-7.878907-3.527343-7.878907-7.878906v-48.332031c0-4.351563 3.527344-7.878906 7.878907-7.878906 4.351562 0 7.878906 3.527343 7.878906 7.878906v48.332031c0 4.351563-3.527344 7.878906-7.878906 7.878906zm0 0"
     fill="#57565c"
     id="path4" />
  <path
     d="m297.664062 89.832031c-4.351562 0-7.878906-3.527343-7.878906-7.878906v-44.128906c0-4.351563 3.527344-7.878907 7.878906-7.878907 4.351563 0 7.878907 3.527344 7.878907 7.878907v44.128906c0 4.351563-3.527344 7.878906-7.878907 7.878906zm0 0"
     fill="#424144"
     id="path6" />
  <path
     d="m38.960938 79.851562h-31.175782c-5.8125 0-9.570312 6.144532-6.921875 11.320313l37.21875 72.703125c1.332031 2.601562 4.003907 4.234375 6.921875 4.234375h137.484375c27.664063 0 52.09375 18.035156 60.246094 44.46875l15.660156 50.800781c8.148438 26.433594 32.578125 44.46875 60.242188 44.46875h111.410156c45.261719 0 81.953125-36.691406 81.953125-81.953125 0-58.027343-47.039062-105.066406-105.066406-105.066406h-339.367188l-21.90625-37.152344c-1.398437-2.367187-3.945312-3.824219-6.699218-3.824219zm0 0"
     fill="#ff5c64"
     id="path8" />
  <path
     d="m468.007812 140.398438c6.644532 13.785156 10.371094 29.242187 10.371094 45.570312v10.507812c0 39.460938-31.988281 71.445313-71.445312 71.445313h-121.917969c-9.609375 0-18.828125-2.179687-27.109375-6.128906l.488281 1.585937c8.148438 26.433594 32.578125 44.46875 60.242188 44.46875h111.414062c45.257813 0 81.949219-36.691406 81.949219-81.953125 0-35.246093-17.359375-66.4375-43.992188-85.496093zm0 0"
     fill="#ff2444"
     id="path10" />
  <path
     d="m245.128906 120.828125 20.265625-36.84375c1.757813-3.195313 5.117188-5.183594 8.761719-5.183594h47.011719c3.648437 0 7.007812 1.984375 8.761719 5.183594l20.265624 36.84375zm0 0"
     fill="#ff5c64"
     id="path12" />
  <path
     d="m321.171875 78.800781h-16.941406l5.882812 10.699219c3.851563 7-1.214843 15.570312-9.207031 15.570312h-47.109375l-8.667969 15.757813h105.066406l-20.261718-36.84375c-1.757813-3.195313-5.117188-5.183594-8.761719-5.183594zm0 0"
     fill="#ff2444"
     id="path14" />
  <path
     d="m423.746094 206.984375h86.554687c-8.910156-49-51.796875-86.15625-103.367187-86.15625h-23.117188v46.230469c0 22.050781 17.878906 39.925781 39.929688 39.925781zm0 0"
     fill="#88e9ff"
     id="path16" />
  <path
     d="m477.601562 206.984375h32.695313c-.261719-1.4375-.558594-2.871094-.878906-4.296875-5.371094-23.824219-19.230469-45.335938-38.597657-60.199219-.921874-.707031-1.859374-1.398437-2.804687-2.074219 6.640625 13.78125 10.363281 29.234376 10.363281 45.554688v10.507812c0 3.570313-.269531 7.078126-.777344 10.507813zm0 0"
     fill="#2dd3f9"
     id="path18" />
  <path
     d="m278.75 0h37.824219v37.824219h-37.824219zm0 0"
     fill="#57565c"
     id="path20" />
  <path
     d="m307.121094 0v15.761719c0 5.804687-4.703125 10.507812-10.507813 10.507812h-17.859375v11.554688h37.824219v-37.824219zm0 0"
     fill="#424144"
     id="path22" />
  <path
     d="m452.597656 37.824219h-136.019531v-37.824219h168.550781c5.925782 0 9.675782 6.371094 6.796875 11.550781l-2.585937 4.660157c-7.414063 13.339843-21.476563 21.613281-36.742188 21.613281zm0 0"
     fill="#c6e3f7"
     id="path24" />
  <path
     d="m482.464844 0-2.582032 4.652344c-7.414062 13.339844-21.476562 21.617187-36.738281 21.617187h-126.566406v11.554688h136.023437c15.261719 0 29.324219-8.273438 36.738282-21.617188l2.585937-4.65625c2.878907-5.179687-.867187-11.550781-6.796875-11.550781zm0 0"
     fill="#aacee0"
     id="path26" />
  <path
     d="m245.242188 362.476562 2.589843 4.65625c7.410157 13.34375 21.472657 21.617188 36.734375 21.617188h181.691406c15.261719 0 29.328126-8.273438 36.738282-21.617188l2.585937-4.65625c2.878907-5.183593-.867187-11.550781-6.796875-11.550781h-246.746094c-5.929687 0-9.675781 6.367188-6.796874 11.550781zm0 0"
     fill="#ffe266"
     id="path28" />
  <path
     d="m485.191406 350.925781c-7.628906 12.359375-21.128906 19.960938-35.746094 19.960938h-181.6875c-7.492187 0-14.691406-2.003907-20.960937-5.609375l1.03125 1.855468c7.414063 13.34375 21.476563 21.617188 36.738281 21.617188h181.691406c15.261719 0 29.324219-8.273438 36.738282-21.617188l2.585937-4.65625c2.878907-5.183593-.867187-11.550781-6.796875-11.550781zm0 0"
     fill="#fcd21d"
     id="path30" />
  <path
     d="m110.199219 37.824219h168.550781v-37.824219h-136.023438c-15.261718 0-29.324218 8.277344-36.738281 21.617188l-2.585937 4.660156c-2.878906 5.179687.867187 11.546875 6.796875 11.546875zm0 0"
     fill="#c6e3f7"
     id="path32" />
  <path
     d="m266.144531 0v5.253906c0 11.605469-9.410156 21.015625-21.015625 21.015625h-141.722656l-.003906.003907c-2.878906 5.183593.867187 11.550781 6.796875 11.550781h168.550781v-37.824219zm0 0"
     fill="#aacee0"
     id="path34" />
</svg>
